<?xml version="1.0" encoding="UTF-8"?><svg id="Layer_2" xmlns="http://www.w3.org/2000/svg" viewBox="0 0 475.8 145"><defs><style>.cls-1{stroke:#000;stroke-miterlimit:10;}</style></defs><g id="Layer_1-2"><path class="cls-1" d="M10.67,90.16c-1.43-5.65-2.19-11.57-2.19-17.66,0-19.88,8.08-37.88,21.08-50.92C42.6,8.58,60.6,.5,80.48,.5c39.76,0,72,32.24,72,72,0,19.88-8.08,37.88-21.08,50.92-13.04,13-31.04,21.08-50.92,21.08-9.53,0-18.63-1.86-26.95-5.22-1.73-.7-3.43-1.47-5.09-2.29-.34-.17-.69-.35-1.03-.52l5.57-8.38c.31,.16,.62,.31,.93,.46,1.54,.73,3.1,1.39,4.69,1.99,6.91,2.6,14.29,3.96,21.88,3.96,16.54,0,32.11-6.45,43.84-18.14,11.71-11.75,18.16-27.32,18.16-43.86,0-34.19-27.81-62-62-62-16.54,0-32.11,6.45-43.84,18.14-11.71,11.75-18.16,27.32-18.16,43.86,0,5.55,.73,11,2.14,16.22l.78,3.15-9.95,2.07-.78-3.79Z"/><path class="cls-1" d="M32.04,89.38c-.07,.8-.28,1.6-.66,2.37l-5.94,12.12c-.35,.71-.81,1.34-1.35,1.87-1.99,1.93-5.05,2.51-7.68,1.22l-3.65-1.78-8.48-4.16c-3.35-1.64-4.72-5.68-3.09-9.03,1.26-2.58,3.96-3.99,6.67-3.75,.8,.07,1.6,.28,2.37,.66,.77,.37,1.56,.59,2.37,.66,1.94,.17,3.89-.52,5.3-1.88,.54-.52,1.01-1.15,1.36-1.88,1.26-2.58,3.95-3.99,6.66-3.75,.8,.07,1.6,.28,2.37,.66,2.58,1.26,3.99,3.95,3.75,6.66Z"/><g><path d="M37.39,142.83c-9.65,0-17.5-7.85-17.5-17.5,0-2.69,.6-5.28,1.78-7.69,.86-1.75,1.99-3.33,3.34-4.69,.97-.97,2.08-1.84,3.29-2.58,2.74-1.67,5.88-2.55,9.09-2.55,4.67,0,9.06,1.82,12.38,5.12,3.3,3.31,5.12,7.71,5.12,12.38,0,1.42-.17,2.82-.51,4.17-.75,3.09-2.35,5.93-4.62,8.21l-.12,.11c-.05,.05-.11,.11-.16,.15-3.3,3.14-7.58,4.86-12.09,4.86Zm0-30c-1.92,0-3.84,.45-5.54,1.3-3.3,1.64-5.7,4.61-6.58,8.17-.25,.96-.37,1.98-.37,3.03,0,6.89,5.61,12.5,12.5,12.5,2.3,0,4.57-.64,6.55-1.85,3.14-1.94,5.25-5.12,5.8-8.73,.1-.64,.15-1.29,.15-1.92,0-6.89-5.61-12.5-12.5-12.5Z"/><path d="M37.39,108.33c4.53,0,8.8,1.77,12.02,4.98,3.21,3.22,4.98,7.49,4.98,12.02,0,1.38-.17,2.74-.49,4.05-.73,3-2.28,5.75-4.45,7.94-.05,.05-.1,.1-.16,.15-.04,.04-.08,.08-.12,.12l-.03,.02-.03,.03c-3.17,3.03-7.34,4.69-11.72,4.69-9.37,0-17-7.63-17-17,0-2.61,.58-5.13,1.73-7.47,.84-1.7,1.93-3.23,3.25-4.55,.95-.95,2.02-1.79,3.19-2.5,2.66-1.62,5.72-2.47,8.83-2.47m0,30c2.4,0,4.75-.67,6.82-1.93,3.26-2.01,5.46-5.32,6.03-9.08,.1-.67,.15-1.34,.15-1.99,0-7.17-5.83-13-13-13-2,0-3.99,.47-5.76,1.35-3.44,1.7-5.93,4.8-6.84,8.49-.26,1.01-.39,2.07-.39,3.16,0,7.17,5.83,13,13,13m0-31c-3.42,0-6.62,.96-9.35,2.62-1.23,.75-2.37,1.64-3.38,2.65-1.4,1.4-2.56,3.03-3.44,4.82-1.17,2.39-1.83,5.07-1.83,7.91,0,9.94,8.06,18,18,18,4.81,0,9.18-1.89,12.41-4.97,.11-.09,.21-.2,.32-.3,2.28-2.29,3.96-5.19,4.75-8.44,.34-1.37,.52-2.81,.52-4.29,0-4.97-2.02-9.47-5.27-12.73-3.26-3.25-7.76-5.27-12.73-5.27h0Zm0,30c-6.62,0-12-5.38-12-12,0-1,.12-1.98,.36-2.91,.85-3.44,3.21-6.3,6.32-7.84,1.6-.8,3.41-1.25,5.32-1.25,6.62,0,12,5.38,12,12,0,.62-.05,1.24-.14,1.84-.54,3.54-2.64,6.57-5.57,8.38-1.83,1.12-3.98,1.78-6.29,1.78h0Z"/></g><g><path d="M176.45,140.04c0-2.56,2.34-11.08,2.34-22.58V27.54c0-11.5-2.34-20.03-2.34-22.58,0-2.77,1.28-4.26,3.41-4.26,5.75,0,11.51,.43,17.26,.43,7.24,0,14.49-.43,21.73-.43,45.17,0,70.31,24.71,70.31,69.03s-27.91,74.57-71.59,74.57c-6.82,0-13.85-.43-20.67-.43-5.75,0-11.29,.43-17.04,.43-2.13,0-3.41-1.49-3.41-4.26Zm99.5-70.1c0-37.92-21.09-58.59-58.38-58.59-24.93,0-26.21,1.07-26.21,6.6V126.4c0,6.39,1.28,7.24,24.08,7.24,37.92,0,60.51-23.22,60.51-63.71Z"/><path d="M316.64,140.04c0-2.56,2.34-11.08,2.34-22.58V27.54c0-11.5-2.34-20.03-2.34-22.58,0-2.77,1.92-4.26,8.52-4.26s8.74,1.49,8.74,4.26c0,2.56-2.34,11.08-2.34,22.58V117.46c0,11.5,2.34,20.03,2.34,22.58,0,2.77-1.92,4.26-8.74,4.26s-8.52-1.49-8.52-4.26Z"/><path d="M365.86,140.04c0-2.56,2.34-11.08,2.34-22.58V27.54c0-11.5-2.34-20.03-2.34-22.58,0-2.77,1.92-4.26,8.31-4.26,2.13,0,4.26,.43,5.97,2.77l73.29,105.46c6.18,8.95,6.82,9.59,7.88,9.59,.85,0,1.06-.64,1.06-15.34V27.54c0-11.5-3.2-20.03-3.2-22.58,0-2.77,2.34-4.26,8.52-4.26s8.1,1.49,8.1,4.26c0,2.56-2.34,11.08-2.34,22.58V117.46c0,11.5,2.34,20.03,2.34,22.58,0,2.77-1.92,4.26-8.31,4.26-2.98,0-4.47-.64-5.97-2.77l-70.31-101.2c-8.31-11.93-9.59-12.57-10.44-12.57-1.28,0-1.49,.43-1.49,30.47v59.23c0,11.5,3.2,20.03,3.2,22.58,0,2.77-2.34,4.26-8.52,4.26s-8.1-1.49-8.1-4.26Z"/></g></g></svg>