<?xml version="1.0" encoding="UTF-8" standalone="no"?>
<!DOCTYPE svg PUBLIC "-//W3C//DTD SVG 1.1//EN"
 "http://www.w3.org/Graphics/SVG/1.1/DTD/svg11.dtd">
<!-- Generated by graphviz version 11.0.0 (20240428.1522)
 -->
<!-- Title: DataFlow Pages: 1 -->
<svg width="1556pt" height="80pt"
 viewBox="0.00 0.00 1556.00 80.00" xmlns="http://www.w3.org/2000/svg" xmlns:xlink="http://www.w3.org/1999/xlink">
<g id="graph0" class="graph" transform="scale(1 1) rotate(0) translate(4 76)">
<title>DataFlow</title>
<polygon fill="white" stroke="none" points="-4,4 -4,-76 1552,-76 1552,4 -4,4"/>
<!-- Dataset -->
<g id="node1" class="node">
<title>Dataset</title>
<polygon fill="orange" stroke="black" points="360,-72 0,-72 0,0 360,0 360,-72"/>
<text text-anchor="middle" x="180" y="-39.5" font-family="Times,serif" font-size="20.00">Dataset:</text>
<text text-anchor="middle" x="180" y="-17" font-family="Times,serif" font-size="20.00">dataset_name.csv</text>
</g>
<!-- Preprocessing -->
<g id="node4" class="node">
<title>Preprocessing</title>
<polygon fill="lightblue" stroke="black" points="756,-72 396,-72 396,0 756,0 756,-72"/>
<text text-anchor="middle" x="576" y="-39.5" font-family="Times,serif" font-size="20.00">Preprocessing:</text>
<text text-anchor="middle" x="576" y="-17" font-family="Times,serif" font-size="20.00">methodX</text>
</g>
<!-- Dataset&#45;&gt;Preprocessing -->
<g id="edge1" class="edge">
<title>Dataset&#45;&gt;Preprocessing</title>
<path fill="none" stroke="black" d="M360.42,-36C368.36,-36 376.33,-36 384.3,-36"/>
<polygon fill="black" stroke="black" points="384.03,-39.5 394.03,-36 384.03,-32.5 384.03,-39.5"/>
</g>
<!-- Visualization -->
<g id="node2" class="node">
<title>Visualization</title>
<polygon fill="lightgreen" stroke="black" points="1548,-72 1188,-72 1188,0 1548,0 1548,-72"/>
<text text-anchor="middle" x="1368" y="-39.5" font-family="Times,serif" font-size="20.00">Visualization:</text>
<text text-anchor="middle" x="1368" y="-17" font-family="Times,serif" font-size="20.00">Scatter Plot/Confusion Matrix</text>
</g>
<!-- Algorithm -->
<g id="node3" class="node">
<title>Algorithm</title>
<polygon fill="lightblue" stroke="black" points="1152,-72 792,-72 792,0 1152,0 1152,-72"/>
<text text-anchor="middle" x="972" y="-39.5" font-family="Times,serif" font-size="20.00">Algorithm:</text>
<text text-anchor="middle" x="972" y="-17" font-family="Times,serif" font-size="20.00">Classifier/Regressor</text>
</g>
<!-- Algorithm&#45;&gt;Visualization -->
<g id="edge3" class="edge">
<title>Algorithm&#45;&gt;Visualization</title>
<path fill="none" stroke="black" d="M1152.42,-36C1160.36,-36 1168.33,-36 1176.3,-36"/>
<polygon fill="black" stroke="black" points="1176.03,-39.5 1186.03,-36 1176.03,-32.5 1176.03,-39.5"/>
</g>
<!-- Preprocessing&#45;&gt;Algorithm -->
<g id="edge2" class="edge">
<title>Preprocessing&#45;&gt;Algorithm</title>
<path fill="none" stroke="black" d="M756.42,-36C764.36,-36 772.33,-36 780.3,-36"/>
<polygon fill="black" stroke="black" points="780.03,-39.5 790.03,-36 780.03,-32.5 780.03,-39.5"/>
</g>
</g>
</svg>
