<?xml version="1.0" encoding="UTF-8"?><svg id="Layer_2" xmlns="http://www.w3.org/2000/svg" viewBox="0 0 397.02 164.6"><defs><style>.cls-1{fill:#e6e5ff;}.cls-2{fill:#fff;}.cls-3{fill:#9190ff;}</style></defs><g id="Layer_1-2"><path class="cls-1" d="M397.02,16.46c0,4.54-1.84,8.66-4.82,11.64-2.98,2.98-7.09,4.82-11.64,4.82h-91.32c9.1,0,16.46,7.37,16.46,16.46,0,4.54-1.84,8.66-4.82,11.64-2.97,2.98-7.09,4.82-11.64,4.82h47.8c9.09,0,16.46,7.37,16.46,16.46,0,4.54-1.84,8.66-4.82,11.64-2.98,2.98-7.09,4.82-11.64,4.82h-125.99c-4.54,0-8.66,1.84-11.64,4.82-2.98,2.98-4.82,7.1-4.82,11.64,0,9.09,7.37,16.46,16.46,16.46h129.72c9.09,0,16.46,7.37,16.46,16.46,0,4.54-1.84,8.66-4.82,11.64-2.98,2.98-7.1,4.82-11.64,4.82H109c-9.09,0-16.46-7.37-16.46-16.46,0-4.54,1.84-8.66,4.82-11.64s7.09-4.82,11.64-4.82H16.45c-9.09,0-16.45-7.37-16.45-16.46,0-4.54,1.84-8.66,4.82-11.64,2.97-2.98,7.09-4.82,11.63-4.82H146.54c4.55,0,8.66-1.84,11.64-4.82,2.98-2.98,4.82-7.1,4.82-11.64,0-9.09-7.37-16.46-16.46-16.46H52.48c-9.09,0-16.46-7.37-16.46-16.46,0-4.54,1.84-8.66,4.82-11.64,2.98-2.98,7.09-4.82,11.64-4.82h96.32c-9.09,0-16.46-7.37-16.46-16.46,0-4.54,1.84-8.66,4.82-11.64,2.98-2.98,7.09-4.82,11.64-4.82h231.76c9.09,0,16.46,7.37,16.46,16.46Z"/><rect class="cls-1" x="364.1" y="65.84" width="32.92" height="32.92" rx="16.46" ry="16.46"/><g><path class="cls-2" d="M158.4,109.11l.36,1.77-39.23,.64c-11.86,.21-23.31-4.33-31.8-12.62h0c-17.71-17.24-18.1-45.57-.86-63.28,8.23-8.46,19.48-13.33,31.29-13.53l93.23-1.44c24.7-.38,45.02,19.33,45.41,44.03,.38,24.7-19.33,45.02-44.03,45.41l-14.89,.26-.46-.61c-4.68-6.22-4.67-14.78,.02-20.99l.44-.58,14.54-.26c12.45-.19,22.38-10.44,22.19-22.89-.19-12.45-10.44-22.38-22.89-22.19l-93.23,1.44c-12.45,.19-22.38,10.44-22.19,22.89,.19,12.45,10.44,22.38,22.89,22.19h0l39.33-.64-.32,1.79c-1.1,6.17-1.03,12.48,.21,18.62h0Zm188.84-11.99c-.41-24.68-20.72-44.38-45.41-44.02l-39.23,.64,.36,1.77c1.24,6.14,1.31,12.46,.21,18.62l-.32,1.79,39.33-.64c12.45-.16,22.67,9.8,22.83,22.25,.16,12.4-9.73,22.6-22.13,22.83l-93.23,1.44c-12.45,.19-22.69-9.74-22.88-22.19-.19-12.45,9.74-22.69,22.19-22.88h0l14.54-.26,.44-.58c4.68-6.21,4.7-14.76,.04-20.99l-.46-.61-14.91,.26c-24.7,.38-44.41,20.71-44.03,45.41,.38,24.7,20.71,44.41,45.41,44.03l93.23-1.44c24.66-.46,44.33-20.74,44.03-45.41h0Z"/><g><path class="cls-3" d="M156.96,109.5l.36,1.77,1.45-1.9c-10.03,.16-20.05,.33-30.08,.49-3.99,.06-8.02,.29-12.01,.11-10.8-.5-21.12-5.21-28.67-12.92-13.4-13.67-16.12-35.22-6.56-51.81,5.18-8.99,13.61-15.97,23.44-19.33,4.92-1.68,9.97-2.29,15.13-2.37l27.41-.42c13.09-.2,26.18-.4,39.28-.61l24.06-.37c6.32-.1,12.58,.96,18.4,3.48,8.11,3.51,15.07,9.51,19.71,17.04,9.68,15.69,8.19,36.51-3.77,50.58-5.77,6.79-13.54,11.72-22.17,13.95-6.25,1.62-12.69,1.41-19.09,1.53l-5.97,.11,1.3,.74c-2.3-3.06-3.76-6.47-3.75-10.35s1.46-7.27,3.76-10.32l-1.3,.74c4.03-.07,8.05-.14,12.08-.21,1.94-.03,3.87-.05,5.8-.33,3.58-.53,7.07-1.92,10.03-4.01,6.01-4.23,9.84-10.99,10.28-18.34s-2.64-14.71-8.21-19.52c-4.53-3.91-10.31-5.99-16.28-5.91-1.59,.02-3.18,.05-4.77,.07-8.04,.12-16.07,.25-24.11,.37l-31.86,.49c-8.54,.13-17.08,.26-25.62,.4l-6.09,.09c-4.56,.07-9,1.16-12.9,3.58-6.23,3.86-10.38,10.43-11.25,17.7s1.81,14.87,7.12,20.01c4.62,4.48,10.85,6.88,17.27,6.79,3-.04,6.01-.1,9.01-.15l28.18-.46,1.97-.03-1.45-1.9c-1.26,7.11-1.51,14.09-.11,21.21l2.51-1.46h0c-1.39-1.35-3.51,.77-2.12,2.12h0c1.12,1.09,2.79-.03,2.51-1.46-1.29-6.56-1.06-13.06,.11-19.61,.17-.93-.4-1.92-1.45-1.9-9.16,.15-18.31,.3-27.47,.45-3.87,.06-7.74,.14-11.61,.19-7.21,.1-14.11-3.31-18.12-9.38-4.7-7.11-4.63-16.5,.16-23.55,3.86-5.68,10.36-9.02,17.18-9.14,6.38-.11,12.76-.2,19.13-.3l35.76-.55c10.3-.16,20.59-.32,30.89-.48,2.3-.04,4.6-.07,6.9-.11,6.19-.09,12.06,2.26,16.27,6.85,5.7,6.2,7.14,15.64,3.46,23.24-3.5,7.22-10.75,11.81-18.74,11.98-4.67,.1-9.36,.08-14.03,.25-1.19,.04-1.73,.73-2.4,1.65-1.38,1.92-2.39,4.14-2.95,6.43-1.13,4.64-.46,9.62,1.88,13.79,.64,1.14,1.66,3.21,3.12,3.32,.74,.05,1.51-.03,2.24-.04l8.7-.15c6.49-.11,12.82-.58,18.99-2.85,15.79-5.8,27.56-20.11,29.92-36.81,2.41-17.03-4.91-34.18-18.86-44.23-6.83-4.92-14.99-7.84-23.38-8.49-2.49-.19-4.97-.12-7.46-.08-8.98,.14-17.95,.28-26.93,.42-12.18,.19-24.36,.38-36.53,.56l-24.64,.38c-4.35,.07-8.67,.44-12.9,1.56-9.47,2.5-18.08,8.07-24.21,15.72-11.04,13.79-13.28,33.01-5.69,48.97s24.73,26.49,42.69,26.2c10.01-.16,20.02-.33,30.03-.49,2.94-.05,5.89-.1,8.83-.14,1.03-.02,1.64-.94,1.45-1.9l-.36-1.77c-.38-1.89-3.27-1.09-2.89,.8Z"/><path class="cls-3" d="M348.74,97.11c-.2-10.05-3.61-19.78-9.79-27.71-6-7.7-14.44-13.4-23.84-16.07-5.82-1.65-11.67-1.77-17.65-1.67l-19.94,.32c-4.97,.08-9.95,.16-14.92,.24-1.03,.02-1.64,.94-1.45,1.9,.71,3.54,1.24,7.05,1.28,10.67s-.4,7.16-1.04,10.71c-.17,.93,.4,1.92,1.45,1.9,7.51-.12,15.01-.24,22.52-.37l13.54-.22c3.73-.06,7.3-.06,10.89,1.25,6.72,2.45,11.77,8.42,13.26,15.39,1.52,7.13-.89,14.67-6.17,19.66-3.88,3.67-8.99,5.63-14.3,5.73-1.77,.03-3.55,.05-5.32,.08-8.24,.13-16.48,.25-24.72,.38-10.63,.16-21.25,.33-31.88,.49-8.35,.13-16.7,.26-25.04,.39-1.86,.03-3.72,.06-5.58,.09-4.99,.07-9.85-1.38-13.79-4.51-5.73-4.55-8.73-11.86-7.85-19.13s5.5-13.38,11.95-16.46c4.6-2.2,9.55-2,14.5-2.08l7.21-.13c.46,0,.95,.03,1.42-.03,1.44-.17,2.49-2.32,3.12-3.46,2-3.64,2.73-7.85,2.13-11.95-.3-2.08-.96-4.08-1.92-5.95-.57-1.1-1.72-3.57-3.1-3.81s-3.08,.02-4.51,.05l-7.68,.14c-5.6,.1-11.09,.54-16.46,2.28-6.84,2.22-13.12,6.05-18.24,11.1-10.58,10.45-15.43,25.55-13.16,40.21s11.51,27.07,24.35,33.72c6.56,3.39,13.88,5.18,21.27,5.18,1.33,0,2.65-.04,3.98-.06,7.44-.11,14.88-.23,22.31-.34,10.56-.16,21.12-.33,31.68-.49l27.05-.42c5.62-.09,11.33,.08,16.88-.97,14.2-2.69,26.66-12.3,32.93-25.31,3.12-6.47,4.69-13.58,4.63-20.76l-1.5,1.5h0c1.93-.03,1.93-3.03,0-3h0c-.81,.01-1.51,.68-1.5,1.5,.12,13.71-6.28,27-17.3,35.23-7.84,5.86-17.05,8.55-26.75,8.7-6.03,.09-12.06,.19-18.09,.28l-29.25,.45c-9.43,.15-18.85,.29-28.28,.44l-15.55,.24c-11.24,.17-22.16-3.72-30.47-11.38-10.24-9.43-15.34-23.4-13.66-37.22,1.65-13.56,10.01-25.78,21.92-32.41,6.04-3.36,12.86-5.22,19.77-5.41,3.86-.1,7.71-.14,11.57-.21l3.86-.07-1.3-.74c2.29,3.07,3.74,6.47,3.74,10.36s-1.46,7.27-3.76,10.31l1.3-.74c-4.03,.07-8.05,.14-12.08,.22-2,.04-3.98,.05-5.97,.36-3.52,.54-6.95,1.93-9.86,3.98-6.02,4.23-9.84,10.99-10.28,18.34s2.69,14.82,8.33,19.63c4.52,3.85,10.24,5.88,16.17,5.8,1.61-.02,3.22-.05,4.82-.07,8.06-.12,16.11-.25,24.17-.37,10.66-.16,21.32-.33,31.98-.49,8.5-.13,17.01-.26,25.51-.39l6-.09c4.64-.07,9.16-1.24,13.09-3.76,6.17-3.96,10.2-10.53,10.99-17.8s-2-14.84-7.35-19.91c-4.6-4.35-10.73-6.69-17.05-6.61-3.04,.04-6.08,.1-9.12,.15l-28.05,.46-1.96,.03,1.45,1.9c.68-3.82,1.19-7.62,1.15-11.51s-.63-7.67-1.39-11.47l-1.45,1.9c10.71-.17,21.43-.35,32.14-.52,4.87-.08,9.8-.37,14.63,.42,9.33,1.53,17.96,6.09,24.48,12.93,7.46,7.83,11.67,18.27,11.89,29.06,.04,1.93,3.04,1.93,3,0Z"/></g></g></g></svg>